<svg width="1148" height="311" viewBox="0 0 1148 311" fill="none" xmlns="http://www.w3.org/2000/svg">
<path d="M193.502 256.184C193.502 203.206 120.945 210.79 117.489 120.945C95.1883 147.713 117.766 220.673 127.548 236.234C113.337 226.407 95.0088 199.447 93.2914 159.428C95.3482 119.102 108.616 110.093 115.325 98.3798C131.528 70.0917 121.036 67.0374 120.902 63.584C87.0155 106.251 68.7768 142.919 66.72 183.245C63.5476 245.445 113.757 290.685 150.392 290.685C175.53 290.685 193.502 273.54 193.502 256.184Z" fill="url(#paint0_linear_2237_4)"/>
<path fill-rule="evenodd" clip-rule="evenodd" d="M245.347 221.155C245.347 221.155 254.791 194.571 254.413 176.954C253.584 138.424 224.834 112.325 202.494 92.0461C201.081 90.7638 199.694 89.5048 198.342 88.2674C161.769 54.8097 168.715 47.9104 168.715 47.9104C168.715 47.9104 175.253 72.9437 211.48 80.8456C190.616 64.6266 183.423 50.0786 177.833 38.7738C170.453 23.8482 165.869 14.5762 136.309 14.5762C136.672 15.5042 137.163 16.6472 137.733 17.9765C140.895 25.3416 146.513 38.4276 146.513 52.3779C146.513 70.6692 141.348 83.4955 136.441 95.6789C132.003 106.699 127.777 117.193 127.777 130.73C127.777 161.592 150.513 183.543 170.604 202.941C185.595 217.415 199.115 230.468 200.617 244.741C203.054 267.882 185.671 287.773 178.017 289.62C197.019 287.773 232.56 260.078 235.528 230.407C235.528 208.232 223.785 195.372 213.154 183.729C201.026 170.445 190.344 158.747 200.202 136.609C196.821 157.799 207.252 166.825 218.991 176.983C230.264 186.738 242.743 197.537 245.347 221.155ZM161.481 28.0383C160.069 24.4409 158.797 21.2001 147.796 21.4079C149.621 23.7475 152.615 25.1748 155.61 26.6021C158.604 28.0294 161.599 29.4567 163.424 31.7966C162.481 30.5877 161.972 29.2914 161.481 28.0383Z" fill="url(#paint1_linear_2237_4)"/>
<path fill-rule="evenodd" clip-rule="evenodd" d="M403.025 88.0273C410.825 88.0273 418.1 90.2773 424.85 94.7774C431.75 99.2773 437.3 105.352 441.5 113.002C445.7 120.652 447.8 129.202 447.8 138.652C447.8 147.952 445.7 156.427 441.5 164.077C437.3 171.727 431.75 177.877 424.85 182.527C418.1 187.027 410.825 189.277 403.025 189.277H363.875V231.802C363.875 235.702 362.675 239.002 360.275 241.702C357.875 244.252 354.725 245.527 350.825 245.527C347.075 245.527 344 244.252 341.6 241.702C339.2 239.002 338 235.702 338 231.802V101.752C338 97.8523 339.275 94.6273 341.825 92.0773C344.525 89.3773 347.825 88.0273 351.725 88.0273H403.025ZM403.025 163.627C405.875 163.627 408.65 162.427 411.35 160.027C414.05 157.627 416.3 154.552 418.1 150.802C419.9 146.902 420.8 142.852 420.8 138.652C420.8 134.302 419.9 130.252 418.1 126.502C416.3 122.752 414.05 119.752 411.35 117.502C408.65 115.102 405.875 113.902 403.025 113.902H363.875V163.627H403.025ZM557.298 125.152C561.198 125.152 564.423 126.502 566.973 129.202C569.523 131.752 570.798 134.977 570.798 138.877V196.027C570.798 200.225 570.489 204.192 569.873 207.929V236.711C569.873 237.385 570.328 237.974 570.98 238.143C577.024 239.714 577.423 248.145 571.554 250.279L570.066 250.82C564.371 252.891 558.007 251.845 553.275 248.059L548.301 244.08C547.676 243.58 547.312 242.823 547.312 242.022V241.61C539.69 245.722 530.343 247.777 519.273 247.777C502.623 247.777 489.873 243.127 481.023 233.827C472.323 224.527 467.973 211.927 467.973 196.027V138.877C467.973 134.977 469.248 131.752 471.798 129.202C474.348 126.502 477.573 125.152 481.473 125.152C485.373 125.152 488.598 126.502 491.148 129.202C493.698 131.752 494.973 134.977 494.973 138.877V196.027C494.973 205.177 496.998 212.002 501.048 216.502C505.098 220.852 511.173 223.027 519.273 223.027C527.523 223.027 533.673 220.852 537.723 216.502C541.773 212.002 543.798 205.177 543.798 196.027V138.877C543.798 134.977 545.073 131.752 547.623 129.202C550.173 126.502 553.398 125.152 557.298 125.152ZM599.128 127.402H609.478V113.002C609.478 109.102 610.753 105.877 613.303 103.327C616.003 100.627 619.303 99.2773 623.203 99.2773C627.103 99.2773 630.253 100.627 632.653 103.327C635.203 105.877 636.478 109.102 636.478 113.002V127.402H652.453C656.053 127.402 659.053 128.602 661.453 131.002C663.853 133.402 665.053 136.402 665.053 140.002C665.053 143.452 663.853 146.377 661.453 148.777C659.053 151.027 656.053 152.152 652.453 152.152H636.478V213.127C636.478 215.227 636.853 216.952 637.603 218.302C638.503 219.652 639.628 220.627 640.978 221.227C642.478 221.827 644.053 222.127 645.703 222.127C647.503 222.127 649.153 221.827 650.653 221.227C652.153 220.477 653.878 220.102 655.828 220.102C657.928 220.102 659.803 221.077 661.453 223.027C663.253 224.977 664.153 227.677 664.153 231.127C664.153 235.327 661.828 238.777 657.178 241.477C652.678 244.177 647.803 245.527 642.553 245.527C639.403 245.527 635.878 245.302 631.978 244.852C628.228 244.252 624.628 242.977 621.178 241.027C617.878 238.927 615.103 235.777 612.853 231.577C610.603 227.377 609.478 221.602 609.478 214.252V152.152H599.128C595.528 152.152 592.528 150.952 590.128 148.552C587.728 146.152 586.528 143.152 586.528 139.552C586.528 136.102 587.728 133.252 590.128 131.002C592.528 128.602 595.528 127.402 599.128 127.402ZM704.019 245.527C699.819 245.527 696.369 244.252 693.669 241.702C691.119 239.002 689.844 235.702 689.844 231.802V101.752C689.844 97.8523 691.119 94.6273 693.669 92.0773C696.369 89.3773 699.669 88.0273 703.569 88.0273H776.694C780.594 88.0273 783.819 89.3023 786.369 91.8523C789.069 94.2523 790.419 97.4023 790.419 101.302C790.419 104.602 789.069 107.527 786.369 110.077C783.819 112.627 780.594 113.902 776.694 113.902H717.969V153.502H766.569C770.469 153.502 773.694 154.777 776.244 157.327C778.944 159.727 780.294 162.877 780.294 166.777C780.294 170.077 778.944 173.002 776.244 175.552C773.694 178.102 770.469 179.377 766.569 179.377H717.969V231.802C717.969 235.702 716.544 239.002 713.694 241.702C710.994 244.252 707.769 245.527 704.019 245.527ZM897.716 125.152C901.616 125.152 904.841 126.502 907.391 129.202C909.941 131.752 911.216 134.977 911.216 138.877V196.027C911.216 211.927 906.791 224.527 897.941 233.827C889.091 243.127 876.341 247.777 859.691 247.777C843.041 247.777 830.291 243.127 821.441 233.827C812.741 224.527 808.391 211.927 808.391 196.027V138.877C808.391 134.977 809.666 131.752 812.216 129.202C814.766 126.502 817.991 125.152 821.891 125.152C825.791 125.152 829.016 126.502 831.566 129.202C834.116 131.752 835.391 134.977 835.391 138.877V196.027C835.391 205.177 837.416 212.002 841.466 216.502C845.516 220.852 851.591 223.027 859.691 223.027C867.941 223.027 874.091 220.852 878.141 216.502C882.191 212.002 884.216 205.177 884.216 196.027V138.877C884.216 134.977 885.491 131.752 888.041 129.202C890.591 126.502 893.816 125.152 897.716 125.152ZM951.696 245.527C947.796 245.527 944.571 244.252 942.021 241.702C939.471 239.002 938.196 235.702 938.196 231.802V138.877C938.196 134.977 939.471 131.752 942.021 129.202C944.571 126.502 947.796 125.152 951.696 125.152C955.596 125.152 958.821 126.502 961.371 129.202C963.921 131.752 965.196 134.977 965.196 138.877V141.889C966.547 139.536 968.122 137.407 969.921 135.502C972.621 132.652 975.621 130.327 978.921 128.527C982.221 126.577 985.746 125.152 989.496 124.252C993.246 123.352 996.996 122.902 1000.75 122.902C1005.25 122.902 1009 124.177 1012 126.727C1015.15 129.277 1016.72 132.277 1016.72 135.727C1016.72 140.677 1015.45 144.277 1012.9 146.527C1010.35 148.627 1007.57 149.677 1004.57 149.677C1001.72 149.677 999.096 149.152 996.696 148.102C994.446 147.052 991.821 146.527 988.821 146.527C986.121 146.527 983.346 147.202 980.496 148.552C977.796 149.752 975.246 151.702 972.846 154.402C970.596 157.102 968.721 160.477 967.221 164.527C965.871 168.427 965.196 173.077 965.196 178.477V231.802C965.196 235.702 963.921 239.002 961.371 241.702C958.821 244.252 955.596 245.527 951.696 245.527ZM1085.15 247.777C1072.4 247.777 1061.3 245.152 1051.85 239.902C1042.55 234.502 1035.35 227.227 1030.25 218.077C1025.3 208.927 1022.83 198.577 1022.83 187.027C1022.83 173.527 1025.53 162.052 1030.93 152.602C1036.48 143.002 1043.68 135.652 1052.53 130.552C1061.38 125.452 1070.75 122.902 1080.65 122.902C1088.3 122.902 1095.5 124.477 1102.25 127.627C1109.15 130.777 1115.23 135.127 1120.48 140.677C1125.73 146.077 1129.85 152.377 1132.85 159.577C1136 166.777 1137.58 174.427 1137.58 182.527C1137.43 186.127 1136 189.052 1133.3 191.302C1130.6 193.552 1127.45 194.677 1123.85 194.677H1049.55C1050.35 198.839 1051.72 202.589 1053.65 205.927C1057.1 211.477 1061.45 215.752 1066.7 218.752C1072.1 221.602 1077.8 223.027 1083.8 223.027C1089.35 223.027 1093.78 222.577 1097.08 221.677C1100.38 220.777 1103 219.727 1104.95 218.527C1107.05 217.177 1108.93 216.052 1110.58 215.152C1113.28 213.802 1115.83 213.127 1118.23 213.127C1121.53 213.127 1124.23 214.252 1126.33 216.502C1128.58 218.752 1129.7 221.377 1129.7 224.377C1129.7 228.427 1127.6 232.102 1123.4 235.402C1119.5 238.702 1114.03 241.627 1106.98 244.177C1099.93 246.577 1092.65 247.777 1085.15 247.777ZM1051.18 167.002C1050.63 168.588 1050.18 170.313 1049.81 172.177H1108.78V170.602C1108.48 166.252 1106.9 162.352 1104.05 158.902C1101.35 155.452 1097.9 152.752 1093.7 150.802C1089.65 148.702 1085.3 147.652 1080.65 147.652C1076.15 147.652 1071.95 148.252 1068.05 149.452C1064.15 150.652 1060.78 152.677 1057.93 155.527C1055.08 158.377 1052.83 162.202 1051.18 167.002ZM875.096 259.99C876.309 258.318 877.392 256.585 878.343 254.803C890.408 250.893 900.38 243.191 907.347 233.292C907.912 234.581 908.202 236.024 908.139 237.58C907.648 249.771 903.484 261.698 895.967 272.06C887.94 283.126 876.525 291.808 863.182 297.136C857.687 299.331 851.758 296.01 849.942 290.378C847.963 284.245 851.649 277.809 857.397 274.895C864.502 271.294 870.591 266.2 875.096 259.99Z" fill="url(#paint2_linear_2237_4)"/>
<defs>
<linearGradient id="paint0_linear_2237_4" x1="189.902" y1="116.664" x2="45.0878" y2="160.612" gradientUnits="userSpaceOnUse">
<stop stop-color="#7B3985"/>
<stop offset="1" stop-color="#C32C62"/>
</linearGradient>
<linearGradient id="paint1_linear_2237_4" x1="233.94" y1="115.593" x2="135.648" y2="134.525" gradientUnits="userSpaceOnUse">
<stop stop-color="#7B3985"/>
<stop offset="1" stop-color="#C32C62"/>
</linearGradient>
<linearGradient id="paint2_linear_2237_4" x1="884.5" y1="59.5" x2="880" y2="326.5" gradientUnits="userSpaceOnUse">
<stop stop-color="#A53170"/>
<stop offset="1" stop-color="#4B18A4"/>
</linearGradient>
</defs>
</svg>
